<svg width="56" height="54" viewBox="0 0 56 54" fill="none" xmlns="http://www.w3.org/2000/svg">
<g id="ion:cash-sharp">
<g id="Vector" filter="url(#filter0_d_3820_688)">
<path d="M22.3125 30.0625H33.6875V30.9375H22.3125V30.0625ZM23.1875 31.375H32.8125V32.25H23.1875V31.375ZM34.125 24.8125C33.4291 24.8117 32.7618 24.5349 32.2697 24.0428C31.7776 23.5507 31.5008 22.8834 31.5 22.1875V21.75H24.5V22.1875C24.4992 22.8834 24.2224 23.5507 23.7303 24.0428C23.2382 24.5349 22.5709 24.8117 21.875 24.8125H21.4375V26.5625H21.875C22.5709 26.5633 23.2382 26.8401 23.7303 27.3322C24.2224 27.8243 24.4992 28.4916 24.5 29.1875V29.625H31.5V29.1875C31.5008 28.4916 31.7776 27.8243 32.2697 27.3322C32.7618 26.8401 33.4291 26.5633 34.125 26.5625H34.5625V24.8125H34.125ZM28 28.3125C27.4808 28.3125 26.9733 28.1585 26.5416 27.8701C26.1099 27.5817 25.7735 27.1717 25.5748 26.692C25.3761 26.2124 25.3242 25.6846 25.4254 25.1754C25.5267 24.6662 25.7767 24.1985 26.1438 23.8313C26.511 23.4642 26.9787 23.2142 27.4879 23.1129C27.9971 23.0117 28.5249 23.0636 29.0045 23.2623C29.4842 23.461 29.8942 23.7974 30.1826 24.2291C30.471 24.6608 30.625 25.1683 30.625 25.6875C30.6242 26.3834 30.3474 27.0507 29.8553 27.5428C29.3632 28.0349 28.6959 28.3117 28 28.3125Z" fill="#56FF67"/>
</g>
<path id="Vector_2" d="M23.625 22.1875V21.75H21.4375V23.9375H21.875C22.339 23.937 22.7838 23.7525 23.1119 23.4244C23.44 23.0963 23.6245 22.6515 23.625 22.1875ZM21.875 27.4375H21.4375V29.625H23.625V29.1875C23.6245 28.7235 23.44 28.2787 23.1119 27.9506C22.7838 27.6225 22.339 27.438 21.875 27.4375ZM34.125 23.9375H34.5625V21.75H32.375V22.1875C32.3755 22.6515 32.56 23.0963 32.8881 23.4244C33.2162 23.7525 33.661 23.937 34.125 23.9375ZM32.375 29.1875V29.625H34.5625V27.4375H34.125C33.661 27.438 33.2162 27.6225 32.8881 27.9506C32.56 28.2787 32.3755 28.7235 32.375 29.1875Z" fill="#56FF67"/>
<path id="Vector_3" d="M28 27.4375C28.9665 27.4375 29.75 26.654 29.75 25.6875C29.75 24.721 28.9665 23.9375 28 23.9375C27.0335 23.9375 26.25 24.721 26.25 25.6875C26.25 26.654 27.0335 27.4375 28 27.4375Z" fill="#56FF67"/>
</g>
<defs>
<filter id="filter0_d_3820_688" x="0.137501" y="0.450001" width="55.725" height="53.1" filterUnits="userSpaceOnUse" color-interpolation-filters="sRGB">
<feFlood flood-opacity="0" result="BackgroundImageFix"/>
<feColorMatrix in="SourceAlpha" type="matrix" values="0 0 0 0 0 0 0 0 0 0 0 0 0 0 0 0 0 0 127 0" result="hardAlpha"/>
<feOffset/>
<feGaussianBlur stdDeviation="10.65"/>
<feComposite in2="hardAlpha" operator="out"/>
<feColorMatrix type="matrix" values="0 0 0 0 0.337255 0 0 0 0 1 0 0 0 0 0.403922 0 0 0 1 0"/>
<feBlend mode="normal" in2="BackgroundImageFix" result="effect1_dropShadow_3820_688"/>
<feBlend mode="normal" in="SourceGraphic" in2="effect1_dropShadow_3820_688" result="shape"/>
</filter>
</defs>
</svg>
