<svg width="56" height="54" viewBox="0 0 56 54" fill="none" xmlns="http://www.w3.org/2000/svg">
<g id="ph:bank-fill">
<g id="Vector" filter="url(#filter0_d_3820_692)">
<path d="M34.5625 31.8753C34.5625 31.9913 34.5164 32.1026 34.4344 32.1846C34.3523 32.2667 34.241 32.3128 34.125 32.3128H21.875C21.759 32.3128 21.6477 32.2667 21.5656 32.1846C21.4836 32.1026 21.4375 31.9913 21.4375 31.8753C21.4375 31.7592 21.4836 31.648 21.5656 31.5659C21.6477 31.4839 21.759 31.4378 21.875 31.4378H34.125C34.241 31.4378 34.3523 31.4839 34.4344 31.5659C34.5164 31.648 34.5625 31.7592 34.5625 31.8753ZM21.8914 25.8695C21.8654 25.7777 21.8701 25.68 21.9047 25.5912C21.9394 25.5023 22.0021 25.4272 22.0834 25.3773L27.7709 21.8773C27.8398 21.8349 27.9191 21.8125 28 21.8125C28.0809 21.8125 28.1602 21.8349 28.2291 21.8773L33.9166 25.3773C33.9979 25.4272 34.0607 25.5022 34.0954 25.591C34.1301 25.6798 34.1349 25.7775 34.1089 25.8693C34.083 25.9611 34.0278 26.0418 33.9517 26.0993C33.8756 26.1568 33.7829 26.1879 33.6875 26.1878H32.375V29.6878H33.25C33.366 29.6878 33.4773 29.7339 33.5594 29.8159C33.6414 29.898 33.6875 30.0092 33.6875 30.1253C33.6875 30.2413 33.6414 30.3526 33.5594 30.4346C33.4773 30.5167 33.366 30.5628 33.25 30.5628H22.75C22.634 30.5628 22.5227 30.5167 22.4406 30.4346C22.3586 30.3526 22.3125 30.2413 22.3125 30.1253C22.3125 30.0092 22.3586 29.898 22.4406 29.8159C22.5227 29.7339 22.634 29.6878 22.75 29.6878H23.625V26.1878H22.3125C22.2172 26.1878 22.1245 26.1567 22.0485 26.0993C21.9725 26.0418 21.9174 25.9612 21.8914 25.8695ZM28.875 29.2503C28.875 29.3663 28.9211 29.4776 29.0031 29.5596C29.0852 29.6417 29.1965 29.6878 29.3125 29.6878C29.4285 29.6878 29.5398 29.6417 29.6219 29.5596C29.7039 29.4776 29.75 29.3663 29.75 29.2503V26.6253C29.75 26.5092 29.7039 26.398 29.6219 26.3159C29.5398 26.2339 29.4285 26.1878 29.3125 26.1878C29.1965 26.1878 29.0852 26.2339 29.0031 26.3159C28.9211 26.398 28.875 26.5092 28.875 26.6253V29.2503ZM26.25 29.2503C26.25 29.3663 26.2961 29.4776 26.3781 29.5596C26.4602 29.6417 26.5715 29.6878 26.6875 29.6878C26.8035 29.6878 26.9148 29.6417 26.9969 29.5596C27.0789 29.4776 27.125 29.3663 27.125 29.2503V26.6253C27.125 26.5092 27.0789 26.398 26.9969 26.3159C26.9148 26.2339 26.8035 26.1878 26.6875 26.1878C26.5715 26.1878 26.4602 26.2339 26.3781 26.3159C26.2961 26.398 26.25 26.5092 26.25 26.6253V29.2503Z" fill="#56FFC2"/>
</g>
</g>
<defs>
<filter id="filter0_d_3820_692" x="0.137501" y="0.512501" width="55.725" height="53.1" filterUnits="userSpaceOnUse" color-interpolation-filters="sRGB">
<feFlood flood-opacity="0" result="BackgroundImageFix"/>
<feColorMatrix in="SourceAlpha" type="matrix" values="0 0 0 0 0 0 0 0 0 0 0 0 0 0 0 0 0 0 127 0" result="hardAlpha"/>
<feOffset/>
<feGaussianBlur stdDeviation="10.65"/>
<feComposite in2="hardAlpha" operator="out"/>
<feColorMatrix type="matrix" values="0 0 0 0 0.337255 0 0 0 0 1 0 0 0 0 0.760784 0 0 0 1 0"/>
<feBlend mode="normal" in2="BackgroundImageFix" result="effect1_dropShadow_3820_692"/>
<feBlend mode="normal" in="SourceGraphic" in2="effect1_dropShadow_3820_692" result="shape"/>
</filter>
</defs>
</svg>
