<svg width="10" height="17" viewBox="0 0 10 17" fill="none" xmlns="http://www.w3.org/2000/svg">
<path fill-rule="evenodd" clip-rule="evenodd" d="M0.98028 9.84785C0.75467 9.62218 0.62793 9.31613 0.62793 8.99702C0.62793 8.67792 0.75467 8.37187 0.98028 8.14619L7.78813 1.33834C7.89914 1.2234 8.03194 1.13172 8.17876 1.06865C8.32559 1.00558 8.4835 0.972381 8.64329 0.970993C8.80308 0.969604 8.96155 1.00005 9.10945 1.06056C9.25735 1.12107 9.39172 1.21043 9.50471 1.32343C9.6177 1.43642 9.70706 1.57079 9.76757 1.71868C9.82808 1.86658 9.85853 2.02505 9.85714 2.18484C9.85575 2.34463 9.82256 2.50255 9.75949 2.64937C9.69641 2.7962 9.60473 2.92899 9.48979 3.04L3.53277 8.99702L9.48979 14.954C9.70901 15.181 9.83031 15.485 9.82757 15.8005C9.82483 16.1161 9.69826 16.4179 9.47513 16.641C9.25201 16.8642 8.95017 16.9907 8.63463 16.9935C8.31909 16.9962 8.0151 16.8749 7.78813 16.6557L0.98028 9.84785Z" fill="white"/>
</svg>
