<svg width="20" height="17" viewBox="0 0 20 17" fill="none" xmlns="http://www.w3.org/2000/svg">
<path fill-rule="evenodd" clip-rule="evenodd" d="M11.2234 1.7C14.6108 1.7 17.2975 3.87019 17.2975 6.48838C17.2975 9.10657 14.6108 11.2768 11.2234 11.2768C9.67761 11.2768 8.27769 10.8248 7.21243 10.0845C7.1995 10.075 7.18633 10.0658 7.17296 10.0569C5.92698 9.17581 5.14936 7.89693 5.14936 6.48838C5.14936 3.87019 7.83612 1.7 11.2234 1.7ZM5.03602 10.711C3.81594 9.57981 3.07529 8.10766 3.07529 6.48838C3.07529 2.87859 6.75603 0 11.2234 0C15.6908 0 19.3716 2.87859 19.3716 6.48838C19.3716 10.0982 15.6908 12.9768 11.2234 12.9768C9.51442 12.9768 7.92052 12.5555 6.60378 11.8332L1.75799 16.2219C1.34634 16.5482 0.689814 16.5393 0.291597 16.2019C-0.10662 15.8645 -0.0957316 15.3264 0.315918 15L5.03602 10.711Z" fill="white" fill-opacity="0.15"/>
</svg>
